<svg width="30" height="30" viewBox="0 0 30 30" fill="none" xmlns="http://www.w3.org/2000/svg">
    <path d="M15.1502 7.09731C17.2755 7.09731 19.2109 7.91348 20.6617 9.25032L25.2857 4.00284C22.6061 1.51823 19.0229 0 15.0861 0C9.25733 0 4.20732 3.33051 1.71429 8.19579L7.36289 12.8571C8.38957 9.52136 11.4875 7.09739 15.1502 7.09739V7.09731Z" fill="#EB3E41"/>
    <path d="M6.81465 15.2703C6.81465 14.4237 6.9391 13.607 7.16955 12.8382L1.62674 8.14258C0.589255 10.221 0 12.5756 0 15.0733C0 17.86 0.73223 20.4691 2.00439 22.714L7.28571 18.0585C6.98139 17.1876 6.81465 16.2491 6.81465 15.2704V15.2703Z" fill="#FDC83B"/>
    <path d="M30 15.0445C30 13.8496 29.8636 12.6867 29.6059 11.5713L15 11.6912V18.7345L22.4824 18.6217C21.8305 20.086 20.7664 21.32 19.4421 22.1786L24.2444 26.9999C27.7468 24.2198 30 19.9 30 15.0446V15.0445Z" fill="#4887F1"/>
    <path d="M15.215 23.3562C11.6773 23.3562 8.66624 21.1228 7.5336 18L2.14282 22.5786C4.75264 27.016 9.59908 30 15.1509 30C18.6521 30 21.8714 28.8109 24.4285 26.8218L19.609 22.0802C18.3402 22.8863 16.8335 23.3562 15.2151 23.3562H15.215Z" fill="#2FAA51"/>
    </svg>
    