<svg width="198" height="117" viewBox="0 0 198 117" fill="none" xmlns="http://www.w3.org/2000/svg">
    <g clip-path="url(#clip0_494_1545)">
    <mask id="mask0_494_1545" style="mask-type:luminance" maskUnits="userSpaceOnUse" x="53" y="20" width="39" height="55">
    <path d="M91.3227 20.3906H53.2739V74.6134H91.3227V20.3906Z" fill="white"/>
    </mask>
    <g mask="url(#mask0_494_1545)">
    <mask id="mask1_494_1545" style="mask-type:luminance" maskUnits="userSpaceOnUse" x="0" y="0" width="109" height="108">
    <path d="M55.0707 0.00266515L0.0812149 54.9922L53.0528 107.964L108.042 52.9742L55.0707 0.00266515Z" fill="white"/>
    </mask>
    <g mask="url(#mask1_494_1545)">
    <mask id="mask2_494_1545" style="mask-type:luminance" maskUnits="userSpaceOnUse" x="0" y="0" width="109" height="108">
    <path d="M55.0707 0.00266515L0.0812149 54.9922L53.0528 107.964L108.042 52.9742L55.0707 0.00266515Z" fill="white"/>
    </mask>
    <g mask="url(#mask2_494_1545)">
    <mask id="mask3_494_1545" style="mask-type:luminance" maskUnits="userSpaceOnUse" x="0" y="0" width="109" height="108">
    <path d="M55.0707 0.00266515L0.0812149 54.9922L53.0528 107.964L108.042 52.9742L55.0707 0.00266515Z" fill="white"/>
    </mask>
    <g mask="url(#mask3_494_1545)">
    <path d="M90.5093 51.525C87.8838 32.8681 56.6557 20.4111 56.6557 20.4111C56.6557 20.4111 60.2872 37.0918 55.9637 47.0873C53.0742 53.7653 49.3998 75.1476 74.8917 74.5127C75.1628 74.5127 75.4482 74.4913 75.7264 74.4698C78.7943 64.8952 81.8194 43.5414 58.6605 22.8369C58.6605 22.8369 87.9979 43.4558 77.239 74.3058C84.0882 73.2855 92.8566 68.1843 90.5093 51.5322" fill="#006666"/>
    </g>
    </g>
    </g>
    </g>
    <mask id="mask4_494_1545" style="mask-type:luminance" maskUnits="userSpaceOnUse" x="0" y="36" width="68" height="51">
    <path d="M67.5431 36.5645H0V86.9845H67.5431V36.5645Z" fill="white"/>
    </mask>
    <g mask="url(#mask4_494_1545)">
    <mask id="mask5_494_1545" style="mask-type:luminance" maskUnits="userSpaceOnUse" x="0" y="0" width="109" height="108">
    <path d="M55.0707 0.00266515L0.0812073 54.9922L53.0528 107.964L108.042 52.9742L55.0707 0.00266515Z" fill="white"/>
    </mask>
    <g mask="url(#mask5_494_1545)">
    <mask id="mask6_494_1545" style="mask-type:luminance" maskUnits="userSpaceOnUse" x="0" y="0" width="109" height="108">
    <path d="M55.0707 0.00266515L0.0812073 54.9922L53.0528 107.964L108.042 52.9742L55.0707 0.00266515Z" fill="white"/>
    </mask>
    <g mask="url(#mask6_494_1545)">
    <mask id="mask7_494_1545" style="mask-type:luminance" maskUnits="userSpaceOnUse" x="0" y="0" width="109" height="108">
    <path d="M55.0707 0.00266515L0.0812073 54.9922L53.0528 107.964L108.042 52.9742L55.0707 0.00266515Z" fill="white"/>
    </mask>
    <g mask="url(#mask7_494_1545)">
    <path d="M51.0551 56.163C39.8538 51.1331 24.4217 48.6788 4.08098 54.4578C4.08098 54.4578 28.4527 44.3267 51.476 53.9013C51.8541 52.2176 52.3393 50.755 52.803 49.6848C54.1372 46.5955 54.7151 42.8641 54.8721 39.1898C33.0402 31.0635 0.121284 54.9715 0.121284 54.9715C0.121284 54.9715 20.4691 62.42 28.2743 73.8496C33.1544 80.9985 51.3904 97.6506 67.2648 76.9817C51.7257 75.5762 49.8636 64.2964 51.0479 56.163" fill="#66B2B2"/>
    </g>
    </g>
    </g>
    </g>
    <path d="M74.3851 77.2314C75.1914 77.2314 75.8192 77.4383 76.2758 77.8378C76.7324 78.2373 77.0606 78.7296 77.2747 79.3218L81.7623 91.4649L86.3284 79.2433C86.5353 78.7296 86.8493 78.2587 87.2773 77.8449C87.7125 77.4311 88.319 77.2171 89.0895 77.2171C89.8601 77.2171 90.5378 77.4882 91.0943 78.0233C91.658 78.5513 91.9433 79.2219 91.9433 80.0281C91.9433 80.285 91.9005 80.5561 91.8221 80.8343C91.7436 81.1054 91.6794 81.3052 91.6294 81.4265L85.2368 96.2165C84.9015 96.9727 84.452 97.5935 83.8955 98.0715C83.3462 98.5495 82.6755 98.7849 81.8765 98.7849H81.5625C80.7563 98.7849 80.0785 98.5495 79.5292 98.0857C78.9798 97.6077 78.5375 96.987 78.2093 96.2094L71.8167 81.4194C71.7382 81.2125 71.6597 80.9984 71.5955 80.763C71.5384 80.5275 71.5028 80.2636 71.5028 79.9782C71.5028 79.279 71.781 78.6369 72.3375 78.0732C72.9012 77.5025 73.5861 77.21 74.3923 77.21L74.3851 77.2314Z" fill="#3C4937"/>
    <path d="M90.759 87.9476C90.759 86.4708 91.0087 85.0724 91.5153 83.7382C92.029 82.4112 92.7353 81.2554 93.6414 80.2779C94.5546 79.2862 95.6391 78.5086 96.909 77.9307C98.1861 77.3599 99.5845 77.0674 101.104 77.0674C102.866 77.0674 104.379 77.3884 105.635 78.0306C106.905 78.6655 107.939 79.4789 108.76 80.4706C109.58 81.4552 110.186 82.5396 110.572 83.7239C110.964 84.9083 111.164 86.0356 111.164 87.1271C111.164 87.9904 110.893 88.6825 110.358 89.2104C109.823 89.7241 109.159 89.981 108.381 89.981H96.6379C96.9233 91.3294 97.5154 92.3497 98.4073 93.0417C99.3062 93.7266 100.419 94.0691 101.753 94.0691C102.588 94.0691 103.344 93.9478 104.029 93.7124C104.721 93.4698 105.371 93.1202 105.977 92.6707C106.184 92.5138 106.398 92.3925 106.619 92.314C106.833 92.2355 107.104 92.1927 107.425 92.1927C108.096 92.1927 108.645 92.4139 109.073 92.8633C109.494 93.3128 109.716 93.8693 109.716 94.54C109.716 94.9252 109.637 95.2677 109.48 95.5531C109.33 95.8456 109.152 96.0882 108.945 96.2951C108.032 97.0799 106.983 97.7006 105.792 98.1501C104.607 98.5996 103.245 98.8207 101.689 98.8207C100.134 98.8207 98.6712 98.5639 97.3371 98.0502C95.9958 97.5365 94.84 96.7945 93.8554 95.8385C92.8851 94.8682 92.1217 93.7266 91.5795 92.4067C91.0301 91.0797 90.759 89.6242 90.759 88.0332V87.9405V87.9476ZM96.5737 86.2781H105.506C105.328 84.9511 104.857 83.8809 104.108 83.0533C103.352 82.2328 102.353 81.819 101.104 81.819C99.8556 81.819 98.8425 82.2257 98.072 83.039C97.3086 83.8452 96.8091 84.9226 96.5737 86.2781Z" fill="#3C4937"/>
    <path d="M111.621 95.6318V80.1855C111.621 79.3507 111.906 78.6515 112.484 78.0879C113.055 77.5171 113.761 77.2246 114.596 77.2246C115.43 77.2246 116.13 77.5171 116.693 78.0879C117.264 78.6515 117.556 79.3507 117.556 80.1855V81.1201C118.006 80.107 118.562 79.208 119.233 78.4161C119.904 77.6242 120.689 77.2246 121.58 77.2246C122.472 77.2246 123.186 77.5029 123.692 78.0451C124.206 78.5944 124.463 79.2794 124.463 80.1141C124.463 80.8989 124.242 81.5196 123.792 81.9691C123.357 82.4257 122.836 82.7254 122.23 82.8752C120.724 83.2747 119.561 84.0524 118.748 85.2082C117.942 86.3569 117.542 87.9907 117.542 90.0954V95.6247C117.542 96.4594 117.25 97.1658 116.679 97.7365C116.115 98.3144 115.416 98.5998 114.581 98.5998C113.747 98.5998 113.04 98.3144 112.47 97.7365C111.892 97.1658 111.606 96.4594 111.606 95.6247L111.621 95.6318Z" fill="#3C4937"/>
    <path d="M122.922 87.8699C122.922 86.129 123.193 84.588 123.728 83.2467C124.263 81.9054 124.962 80.7781 125.84 79.8577C126.71 78.9374 127.716 78.2453 128.858 77.7744C130.006 77.2964 131.205 77.061 132.453 77.061C134.037 77.061 135.343 77.3749 136.363 77.9956C137.391 78.6234 138.261 79.3512 138.967 80.1788V72.6161C138.967 71.7814 139.253 71.0822 139.816 70.5186C140.38 69.9549 141.093 69.6553 141.928 69.6553C142.763 69.6553 143.462 69.9478 144.04 70.5186C144.611 71.0822 144.903 71.7814 144.903 72.6161V95.6252C144.903 96.4599 144.611 97.1662 144.04 97.737C143.462 98.3149 142.763 98.6003 141.928 98.6003C141.093 98.6003 140.387 98.3149 139.816 97.737C139.253 97.1662 138.967 96.4599 138.967 95.6252V95.354C138.233 96.3457 137.348 97.1591 136.32 97.7941C135.3 98.429 134.009 98.743 132.453 98.743C131.226 98.743 130.035 98.5075 128.886 98.0438C127.745 97.58 126.732 96.8808 125.854 95.9605C124.969 95.033 124.263 93.8914 123.728 92.5573C123.193 91.2231 122.922 89.682 122.922 87.9341V87.8627V87.8699ZM128.858 87.8699V87.9412C128.858 88.8045 128.993 89.5893 129.257 90.3028C129.535 91.0162 129.906 91.6298 130.37 92.1435C130.848 92.65 131.383 93.0424 131.99 93.3207C132.603 93.5918 133.26 93.7202 133.966 93.7202C134.672 93.7202 135.322 93.5847 135.928 93.3207C136.542 93.0424 137.077 92.65 137.533 92.1435C137.99 91.6298 138.354 91.0162 138.618 90.3028C138.896 89.5893 139.032 88.8045 139.032 87.9412V87.8699C139.032 87.0208 138.889 86.236 138.618 85.5226C138.347 84.802 137.983 84.1813 137.533 83.6819C137.077 83.1753 136.542 82.79 135.928 82.5189C135.322 82.2407 134.665 82.1051 133.966 82.1051C133.267 82.1051 132.603 82.2478 131.99 82.5189C131.383 82.79 130.848 83.1753 130.37 83.6819C129.899 84.1884 129.528 84.7949 129.257 85.494C128.986 86.2004 128.858 86.9923 128.858 87.8699Z" fill="#3C4937"/>
    <path d="M144.875 92.286C144.875 91.1373 145.082 90.1456 145.503 89.3109C145.924 88.4761 146.502 87.7912 147.244 87.2419C147.985 86.6996 148.87 86.293 149.89 86.0218C150.918 85.7436 152.059 85.608 153.308 85.608C154.399 85.608 155.334 85.6865 156.119 85.8435C156.897 85.9933 157.667 86.2002 158.423 86.4713V86.1146C158.423 83.5675 156.925 82.2976 153.936 82.2976C153.101 82.2976 152.338 82.3261 151.646 82.3689C150.961 82.4189 150.361 82.5901 149.848 82.8755C149.641 82.9896 149.348 83.0396 148.984 83.0396C148.307 83.0396 147.729 82.8113 147.244 82.3404C146.765 81.8624 146.53 81.2916 146.53 80.6138C146.53 80.1001 146.68 79.6293 146.98 79.2155C147.279 78.8016 147.657 78.4949 148.121 78.3094C149.063 77.9526 150.055 77.6815 151.11 77.5032C152.159 77.3177 153.386 77.2178 154.799 77.2178C157.867 77.2178 160.186 77.9526 161.755 79.4152C163.332 80.8849 164.117 83.1537 164.117 86.2216V95.732C164.117 96.5453 163.831 97.2231 163.268 97.7654C162.711 98.3147 162.033 98.5858 161.234 98.5858C160.371 98.5858 159.679 98.3361 159.151 97.8296C158.637 97.3159 158.381 96.7451 158.381 96.1173V96.0887C157.653 96.8949 156.797 97.5371 155.791 98.0222C154.785 98.5002 153.543 98.7357 152.059 98.7357C151.075 98.7357 150.147 98.6001 149.277 98.3361C148.406 98.0579 147.643 97.6512 146.987 97.1019C146.337 96.5596 145.824 95.889 145.438 95.097C145.06 94.3051 144.875 93.3847 144.875 92.3502V92.2789V92.286ZM150.618 92.0506V92.1219C150.618 92.9352 150.918 93.5631 151.51 94.0126C152.109 94.4478 152.894 94.669 153.857 94.669C155.263 94.669 156.39 94.3336 157.232 93.6558C158.074 92.9709 158.495 92.0862 158.495 90.9946V89.9387C157.981 89.7104 157.396 89.5321 156.754 89.3894C156.119 89.2395 155.441 89.1682 154.721 89.1682C153.443 89.1682 152.437 89.4179 151.703 89.9102C150.975 90.3953 150.618 91.1088 150.618 92.0506Z" fill="#3C4937"/>
    <path d="M168.126 77.2315C168.961 77.2315 169.66 77.524 170.224 78.0948C170.795 78.6584 171.087 79.3576 171.087 80.1923V80.4278C171.772 79.5502 172.593 78.7725 173.556 78.0948C174.512 77.4098 175.732 77.0674 177.216 77.0674C179.506 77.0674 181.261 77.7523 182.481 79.1221C183.708 80.492 184.322 82.3898 184.322 84.8298V95.6387C184.322 96.4734 184.029 97.1798 183.459 97.7505C182.881 98.3284 182.182 98.6138 181.347 98.6138C180.512 98.6138 179.806 98.3284 179.235 97.7505C178.671 97.1798 178.386 96.4734 178.386 95.6387V86.7062C178.386 83.8738 177.187 82.454 174.804 82.454C173.62 82.454 172.707 82.8179 172.058 83.5384C171.408 84.2519 171.094 85.3078 171.094 86.7062V95.6387C171.094 96.4734 170.802 97.1798 170.231 97.7505C169.668 98.3284 168.968 98.6138 168.134 98.6138C167.299 98.6138 166.592 98.3284 166.022 97.7505C165.444 97.1798 165.158 96.4734 165.158 95.6387V80.1923C165.158 79.3576 165.444 78.6584 166.022 78.0948C166.592 77.524 167.299 77.2315 168.134 77.2315H168.126Z" fill="#3C4937"/>
    <path d="M185.285 77.4675H186.37V74.8491C186.37 74.0144 186.655 73.3152 187.219 72.7373C187.789 72.1665 188.496 71.874 189.33 71.874C190.165 71.874 190.864 72.1665 191.442 72.7373C192.013 73.3152 192.306 74.0144 192.306 74.8491V77.4675H194.924C195.623 77.4675 196.222 77.7172 196.708 78.2095C197.2 78.6947 197.45 79.294 197.45 79.9932C197.45 80.6924 197.2 81.2988 196.708 81.7911C196.222 82.2905 195.623 82.5331 194.924 82.5331H192.306V91.4656C192.306 92.814 192.94 93.4847 194.21 93.4847C194.317 93.4847 194.446 93.4847 194.596 93.4704C194.753 93.449 194.867 93.4419 194.924 93.4419C195.595 93.4419 196.172 93.6844 196.65 94.1696C197.136 94.6476 197.378 95.2255 197.378 95.9104C197.378 96.5383 197.207 97.0306 196.872 97.3944C196.536 97.7511 196.108 98.0294 195.595 98.2292C195.088 98.4147 194.56 98.5431 194.004 98.6144C193.447 98.6786 192.933 98.7214 192.455 98.7214C191.571 98.7214 190.75 98.6216 190.001 98.4218C189.245 98.222 188.603 97.8796 188.068 97.3944C187.532 96.9021 187.119 96.2529 186.819 95.4467C186.519 94.6333 186.37 93.6274 186.37 92.4288V82.526H185.285C184.579 82.526 183.979 82.2834 183.487 81.784C182.988 81.2917 182.745 80.6924 182.745 79.986C182.745 79.2797 182.988 78.6876 183.487 78.2024C183.979 77.7101 184.579 77.4604 185.285 77.4604V77.4675Z" fill="#3C4937"/>
    <path d="M86.8493 115.366H91.3226V116.943H85.0941V106.598H86.8493V115.366Z" fill="#006666"/>
    <path d="M98.9352 116.943H97.1801V106.598H98.9352V116.943Z" fill="#006666"/>
    <path d="M112.776 108.167H107.589V111.142H112.284V112.705H107.589V116.943H105.834V106.598H112.791L112.776 108.174V108.167Z" fill="#006666"/>
    <path d="M125.918 108.167H120.282V110.95H125.333V112.526H120.282V115.38H126.097V116.943H118.534V106.598H125.918V108.174V108.167Z" fill="#006666"/>
    <path d="M135.821 106.519C137.162 106.519 138.368 106.876 139.445 107.589L138.718 109.123C137.669 108.488 136.656 108.174 135.685 108.174C135.157 108.174 134.751 108.274 134.451 108.459C134.152 108.638 134.002 108.902 134.002 109.244C134.002 109.587 134.137 109.894 134.401 110.136C134.679 110.372 135.029 110.55 135.443 110.657C135.857 110.771 136.306 110.907 136.784 111.085C137.269 111.256 137.719 111.435 138.14 111.634C138.554 111.827 138.896 112.127 139.167 112.54C139.445 112.947 139.581 113.439 139.581 114.01C139.581 114.923 139.21 115.651 138.482 116.193C137.754 116.728 136.82 117 135.671 117C134.886 117 134.123 116.85 133.381 116.55C132.646 116.25 132.004 115.858 131.448 115.359L132.204 113.839C132.717 114.324 133.288 114.702 133.916 114.966C134.544 115.223 135.136 115.351 135.7 115.351C136.313 115.351 136.791 115.244 137.127 115.023C137.462 114.795 137.633 114.481 137.633 114.089C137.633 113.732 137.491 113.432 137.219 113.197C136.948 112.961 136.613 112.79 136.192 112.676C135.778 112.555 135.322 112.419 134.836 112.262C134.358 112.098 133.916 111.92 133.495 111.741C133.081 111.556 132.732 111.263 132.453 110.864C132.182 110.457 132.054 109.965 132.054 109.394C132.054 108.524 132.396 107.824 133.081 107.297C133.773 106.776 134.687 106.512 135.814 106.512L135.821 106.519Z" fill="#006666"/>
    <path d="M152.873 108.168H149.591V116.936H147.85V108.168H144.582V106.591H152.88V108.168H152.873Z" fill="#006666"/>
    <path d="M162.797 113.49V116.936H161.056V113.547L157.203 106.591H158.958L161.919 111.628L164.816 106.591H166.585L162.797 113.49Z" fill="#006666"/>
    <path d="M173.913 115.366H178.386V116.943H172.157V106.598H173.913V115.366Z" fill="#006666"/>
    <path d="M191.628 108.167H185.991V110.95H191.043V112.526H185.991V115.38H191.806V116.943H184.243V106.598H191.628V108.174V108.167Z" fill="#006666"/>
    </g>
    <defs>
    <clipPath id="clip0_494_1545">
    <rect width="197.45" height="117" fill="white"/>
    </clipPath>
    </defs>
    </svg>
    