<?xml version="1.0" encoding="UTF-8"?><svg id="a" xmlns="http://www.w3.org/2000/svg" viewBox="0 0 800 784.72"><path d="M770.15,219.55h-5.64c1.63-5.97,2.52-12.05,2.52-18.17,0-25.24-14.72-53.86-39.37-76.41-19.75-18.07-43.4-30.45-68.28-35.9-12.94-35.13-46.91-60.13-85.93-60.13-10.17,0-20.21,1.68-29.73,4.94C504.76,12.22,453.44,0,400,0s-104.76,12.21-143.73,33.86c-9.51-3.27-19.56-4.95-29.73-4.95-39.02,0-72.99,24.97-85.93,60.11-24.87,5.46-48.53,17.79-68.28,35.86-24.65,22.55-39.37,51.26-39.37,76.5,0,6.12,.89,12.2,2.52,18.17h-5.64c-16.48,0-29.85,13.01-29.85,29.5v218.04c0,120.32,95.83,218.66,215.17,222.74l-13.42,58.36c-2.04,8.86,.07,18.17,5.74,25.28,5.67,7.11,14.26,11.26,23.35,11.26h338.31c9.09,0,17.69-4.14,23.35-11.25,5.66-7.11,7.78-16.41,5.75-25.27l-13.4-58.37c119.33-4.1,215.15-102.43,215.15-222.74V249.05c0-16.49-13.37-29.5-29.85-29.5ZM166.4,145.69c15.09-.68,27.3-12.57,28.43-27.64,1.23-16.49,15.16-29.42,31.72-29.42,5.8,0,11.46,1.56,16.38,4.52,9.97,6.01,22.52,5.67,32.15-.86,30.58-20.71,76.11-32.6,124.92-32.6s94.34,11.88,124.92,32.59c9.64,6.52,22.18,6.86,32.15,.85,4.92-2.97,10.58-4.53,16.38-4.53,16.55,0,30.49,12.92,31.72,29.4,1.12,15.07,13.33,26.92,28.43,27.6,42.6,1.92,73.73,40.17,73.73,55.77,0,5.03-5.47,12.2-15.53,18.17H108.2c-10.06-5.97-15.53-13.15-15.53-18.17,0-15.59,31.14-53.77,73.73-55.68Zm101.95,579.33l8.06-35.82h247.23l8.05,35.82H268.34Zm471.96-257.94c0,89.98-73.2,162.41-163.18,162.41H222.88c-89.98,0-163.18-72.43-163.18-162.41v-187.83H740.3v187.83h0Z"/></svg>