<svg width="36" height="36" viewBox="0 0 36 36" fill="none" xmlns="http://www.w3.org/2000/svg">
    <circle cx="18" cy="18" r="18" fill="#008080"/>
    <g clip-path="url(#clip0_0_1)">
    <path d="M14.3501 26.2402C15.1901 27.3102 16.5101 28.0002 18.0001 28.0002C19.4901 28.0002 20.8101 27.3102 21.6501 26.2402C19.2301 26.5702 16.7801 26.5702 14.3501 26.2402Z" fill="white"/>
    <path d="M24.7498 15V15.7C24.7498 16.54 24.9898 17.37 25.4398 18.07L26.5498 19.79C27.5598 21.36 26.7898 23.5 25.0298 24C20.4298 25.3 15.5698 25.3 10.9698 24C9.20981 23.5 8.43981 21.36 9.44981 19.79L10.5598 18.07C11.0098 17.37 11.2498 16.54 11.2498 15.7V15C11.2498 11.13 14.2698 8 17.9998 8C21.7298 8 24.7498 11.13 24.7498 15Z" fill="white"/>
    </g>
    <defs>
    <clipPath id="clip0_0_1">
    <rect width="18" height="20" fill="white" transform="translate(9 8)"/>
    </clipPath>
    </defs>
    </svg>
    