<?xml version="1.0" encoding="UTF-8"?><svg id="a" xmlns="http://www.w3.org/2000/svg" viewBox="0 0 716.67 583.33"><path d="M25,291.67c0-125.71,0-188.56,39.05-227.61C103.11,25,165.96,25,291.67,25h133.33c125.71,0,188.56,0,227.61,39.05,39.05,39.05,39.05,101.91,39.05,227.61s0,188.56-39.05,227.61c-39.05,39.05-101.91,39.05-227.61,39.05h-133.33c-125.71,0-188.56,0-227.61-39.05-39.05-39.05-39.05-101.91-39.05-227.61Z" fill="#fff" stroke="#000" stroke-miterlimit="133.33" stroke-width="50"/><path d="M358.34,225v133.33m-57.75-100l115.47,66.67m0-66.67l-115.47,66.67" fill="#fff" stroke="#000" stroke-linecap="round" stroke-miterlimit="133.33" stroke-width="50"/><path d="M182.76,225v133.33m-57.75-100l115.47,66.67m0-66.67l-115.47,66.67" fill="#fff" stroke="#000" stroke-linecap="round" stroke-miterlimit="133.33" stroke-width="50"/><path d="M533.94,225v133.33m-57.75-100l115.47,66.67m0-66.67l-115.47,66.67" fill="#fff" stroke="#000" stroke-linecap="round" stroke-miterlimit="133.33" stroke-width="50"/></svg>