<?xml version="1.0" encoding="UTF-8"?><svg id="a" xmlns="http://www.w3.org/2000/svg" viewBox="0 0 678.55 716.67"><circle cx="339.27" cy="358.33" r="100" fill="none" stroke="#231f20" stroke-miterlimit="133.33" stroke-width="50"/><path d="M398.12,30.07c-12.25-5.07-27.78-5.07-58.85-5.07s-46.59,0-58.85,5.07c-16.33,6.77-29.31,19.74-36.08,36.08-3.09,7.46-4.3,16.13-4.77,28.78-.7,18.59-10.23,35.8-26.34,45.1-16.11,9.3-35.78,8.95-52.22,.26-11.19-5.92-19.31-9.2-27.31-10.26-17.53-2.31-35.26,2.44-49.29,13.21-10.52,8.07-18.29,21.52-33.82,48.42-15.53,26.9-23.3,40.35-25.03,53.5-2.31,17.53,2.44,35.26,13.21,49.29,4.91,6.4,11.82,11.78,22.53,18.52,15.75,9.9,25.89,26.76,25.89,45.37s-10.14,35.46-25.89,45.36c-10.72,6.74-17.62,12.12-22.54,18.52-10.76,14.03-15.51,31.75-13.21,49.28,1.73,13.15,9.5,26.6,25.03,53.5,15.53,26.9,23.3,40.35,33.82,48.42,14.03,10.76,31.76,15.51,49.29,13.21,8-1.05,16.12-4.34,27.31-10.26,16.45-8.69,36.12-9.04,52.23,.26,16.11,9.3,25.65,26.51,26.34,45.1,.47,12.65,1.68,21.32,4.77,28.78,6.77,16.33,19.74,29.31,36.08,36.08,12.25,5.07,27.78,5.07,58.85,5.07s46.59,0,58.85-5.07c16.33-6.77,29.31-19.75,36.08-36.08,3.09-7.46,4.3-16.13,4.77-28.78,.69-18.59,10.23-35.8,26.34-45.1,16.11-9.3,35.78-8.95,52.23-.26,11.19,5.91,19.3,9.2,27.3,10.25,17.53,2.31,35.26-2.44,49.29-13.2,10.52-8.07,18.29-21.52,33.82-48.43,15.53-26.9,23.3-40.35,25.03-53.5,2.31-17.53-2.44-35.26-13.21-49.29-4.91-6.4-11.82-11.79-22.54-18.52-15.75-9.9-25.89-26.76-25.89-45.36s10.14-35.46,25.89-45.36c10.72-6.74,17.63-12.12,22.54-18.52,10.76-14.03,15.51-31.75,13.21-49.28-1.73-13.15-9.5-26.6-25.03-53.5-15.53-26.9-23.3-40.35-33.82-48.42-14.03-10.76-31.76-15.51-49.29-13.21-8,1.05-16.11,4.34-27.31,10.26-16.45,8.69-36.12,9.04-52.23-.26-16.11-9.3-25.65-26.51-26.34-45.1-.47-12.65-1.68-21.32-4.77-28.78-6.76-16.34-19.74-29.31-36.08-36.08Z" fill="none" stroke="#231f20" stroke-miterlimit="133.33" stroke-width="50"/></svg>