<?xml version="1.0" encoding="UTF-8"?><svg id="a" xmlns="http://www.w3.org/2000/svg" viewBox="0 0 325 258.33"><path d="M37.5,212.5h-8.33c-9.2,0-16.67-7.46-16.67-16.67,0-27.61,22.39-50,50-50h16.67m0-50.83c-22.55-4.61-37.08-26.63-32.47-49.17,4.61-22.55,26.63-37.08,49.17-32.47,6.03,1.23,11.71,3.79,16.64,7.48m175,191.67h8.33c9.2,0,16.67-7.46,16.67-16.67,0-27.61-22.39-50-50-50h-16.67m0-50.83c22.55-4.61,37.08-26.63,32.47-49.17-4.61-22.55-26.63-37.08-49.17-32.47-6.03,1.23-11.71,3.79-16.64,7.48m8.33,225H104.17c-9.2,0-16.67-7.46-16.67-16.67,0-27.61,22.39-50,50-50h50c27.61,0,50,22.39,50,50,0,9.2-7.46,16.67-16.67,16.67Zm-16.67-158.33c0,23.01-18.65,41.67-41.67,41.67s-41.67-18.65-41.67-41.67,18.65-41.67,41.67-41.67,41.67,18.65,41.67,41.67Z" fill="none" stroke="#000" stroke-linecap="round" stroke-width="25"/></svg>